<mxfile host="app.diagrams.net" modified="2024-04-07T06:19:29.039Z" agent="Mozilla/5.0 (Windows NT 10.0; Win64; x64) AppleWebKit/537.36 (KHTML, like Gecko) Chrome/122.0.0.0 Safari/537.36 OPR/108.0.0.0" etag="wuM_-NxcCCXOWjZuF9uQ" version="24.2.2" type="github">
  <diagram name="Page-1" id="ELzC7Gz1S9zcipFEYV6O">
    <mxGraphModel dx="2842" dy="2218" grid="1" gridSize="10" guides="1" tooltips="1" connect="1" arrows="1" fold="1" page="1" pageScale="1" pageWidth="850" pageHeight="1100" math="0" shadow="0">
      <root>
        <mxCell id="0" />
        <mxCell id="1" parent="0" />
        <mxCell id="fWyK5Vm0Hm_J80TtpJjF-6" value="" style="ellipse;html=1;shape=startState;fillColor=#000000;strokeColor=#ff0000;" vertex="1" parent="1">
          <mxGeometry x="190" y="-1090" width="30" height="30" as="geometry" />
        </mxCell>
        <mxCell id="fWyK5Vm0Hm_J80TtpJjF-7" value="" style="edgeStyle=orthogonalEdgeStyle;html=1;verticalAlign=bottom;endArrow=open;endSize=8;strokeColor=#ff0000;rounded=0;" edge="1" source="fWyK5Vm0Hm_J80TtpJjF-6" parent="1">
          <mxGeometry relative="1" as="geometry">
            <mxPoint x="205" y="-1000" as="targetPoint" />
          </mxGeometry>
        </mxCell>
        <mxCell id="fWyK5Vm0Hm_J80TtpJjF-8" value="Access the prescription and reports section" style="rounded=1;whiteSpace=wrap;html=1;arcSize=40;fontColor=#000000;fillColor=#ffffc0;strokeColor=#ff0000;" vertex="1" parent="1">
          <mxGeometry x="145" y="-1000" width="120" height="40" as="geometry" />
        </mxCell>
        <mxCell id="fWyK5Vm0Hm_J80TtpJjF-9" value="" style="edgeStyle=orthogonalEdgeStyle;html=1;verticalAlign=bottom;endArrow=open;endSize=8;strokeColor=#ff0000;rounded=0;" edge="1" source="fWyK5Vm0Hm_J80TtpJjF-8" parent="1">
          <mxGeometry relative="1" as="geometry">
            <mxPoint x="205" y="-900" as="targetPoint" />
          </mxGeometry>
        </mxCell>
        <mxCell id="fWyK5Vm0Hm_J80TtpJjF-10" value="Authenticated" style="rhombus;whiteSpace=wrap;html=1;fontColor=#000000;fillColor=#ffffc0;strokeColor=#ff0000;" vertex="1" parent="1">
          <mxGeometry x="160" y="-900" width="90" height="50" as="geometry" />
        </mxCell>
        <mxCell id="fWyK5Vm0Hm_J80TtpJjF-11" value="no" style="edgeStyle=orthogonalEdgeStyle;html=1;align=left;verticalAlign=bottom;endArrow=open;endSize=8;strokeColor=#ff0000;rounded=0;" edge="1" source="fWyK5Vm0Hm_J80TtpJjF-10" parent="1" target="fWyK5Vm0Hm_J80TtpJjF-14">
          <mxGeometry x="-1" relative="1" as="geometry">
            <mxPoint x="430" y="-1030" as="targetPoint" />
            <Array as="points">
              <mxPoint x="561" y="-875" />
            </Array>
          </mxGeometry>
        </mxCell>
        <mxCell id="fWyK5Vm0Hm_J80TtpJjF-12" value="yes" style="edgeStyle=orthogonalEdgeStyle;html=1;align=left;verticalAlign=top;endArrow=open;endSize=8;strokeColor=#ff0000;rounded=0;" edge="1" source="fWyK5Vm0Hm_J80TtpJjF-10" parent="1">
          <mxGeometry x="-1" relative="1" as="geometry">
            <mxPoint x="205" y="-790" as="targetPoint" />
            <Array as="points">
              <mxPoint x="205" y="-790" />
            </Array>
          </mxGeometry>
        </mxCell>
        <mxCell id="fWyK5Vm0Hm_J80TtpJjF-15" style="edgeStyle=orthogonalEdgeStyle;rounded=0;orthogonalLoop=1;jettySize=auto;html=1;entryX=0.75;entryY=0;entryDx=0;entryDy=0;strokeColor=#D73737;" edge="1" parent="1" source="fWyK5Vm0Hm_J80TtpJjF-14" target="fWyK5Vm0Hm_J80TtpJjF-8">
          <mxGeometry relative="1" as="geometry" />
        </mxCell>
        <mxCell id="fWyK5Vm0Hm_J80TtpJjF-14" value="Login" style="rounded=1;whiteSpace=wrap;html=1;arcSize=40;fontColor=#000000;fillColor=#ffffc0;strokeColor=#ff0000;" vertex="1" parent="1">
          <mxGeometry x="280" y="-1060" width="120" height="40" as="geometry" />
        </mxCell>
        <mxCell id="fWyK5Vm0Hm_J80TtpJjF-16" value="Display stored prescription and reports" style="rounded=1;whiteSpace=wrap;html=1;arcSize=40;fontColor=#000000;fillColor=#ffffc0;strokeColor=#ff0000;" vertex="1" parent="1">
          <mxGeometry x="145" y="-790" width="120" height="40" as="geometry" />
        </mxCell>
        <mxCell id="fWyK5Vm0Hm_J80TtpJjF-17" value="" style="edgeStyle=orthogonalEdgeStyle;html=1;verticalAlign=bottom;endArrow=open;endSize=8;strokeColor=#ff0000;rounded=0;" edge="1" source="fWyK5Vm0Hm_J80TtpJjF-16" parent="1">
          <mxGeometry relative="1" as="geometry">
            <mxPoint x="205" y="-690" as="targetPoint" />
          </mxGeometry>
        </mxCell>
        <mxCell id="fWyK5Vm0Hm_J80TtpJjF-53" style="edgeStyle=orthogonalEdgeStyle;rounded=0;orthogonalLoop=1;jettySize=auto;html=1;" edge="1" parent="1" source="fWyK5Vm0Hm_J80TtpJjF-18">
          <mxGeometry relative="1" as="geometry">
            <mxPoint x="70" y="-570" as="targetPoint" />
          </mxGeometry>
        </mxCell>
        <mxCell id="fWyK5Vm0Hm_J80TtpJjF-18" value="Action" style="rhombus;whiteSpace=wrap;html=1;fontColor=#000000;fillColor=#ffffc0;strokeColor=#ff0000;" vertex="1" parent="1">
          <mxGeometry x="165" y="-690" width="80" height="40" as="geometry" />
        </mxCell>
        <mxCell id="fWyK5Vm0Hm_J80TtpJjF-19" value="add new record" style="edgeStyle=orthogonalEdgeStyle;html=1;align=left;verticalAlign=bottom;endArrow=open;endSize=8;strokeColor=#ff0000;rounded=0;" edge="1" source="fWyK5Vm0Hm_J80TtpJjF-18" parent="1">
          <mxGeometry x="-1" relative="1" as="geometry">
            <mxPoint x="350" y="-670" as="targetPoint" />
          </mxGeometry>
        </mxCell>
        <mxCell id="fWyK5Vm0Hm_J80TtpJjF-20" value="update existing record" style="edgeStyle=orthogonalEdgeStyle;html=1;align=left;verticalAlign=top;endArrow=open;endSize=8;strokeColor=#ff0000;rounded=0;" edge="1" source="fWyK5Vm0Hm_J80TtpJjF-18" parent="1">
          <mxGeometry x="-1" relative="1" as="geometry">
            <mxPoint x="205" y="-540" as="targetPoint" />
          </mxGeometry>
        </mxCell>
        <mxCell id="fWyK5Vm0Hm_J80TtpJjF-21" value="Prompts a scanning interface" style="rounded=1;whiteSpace=wrap;html=1;arcSize=40;fontColor=#000000;fillColor=#ffffc0;strokeColor=#ff0000;" vertex="1" parent="1">
          <mxGeometry x="350" y="-690" width="120" height="40" as="geometry" />
        </mxCell>
        <mxCell id="fWyK5Vm0Hm_J80TtpJjF-22" value="" style="edgeStyle=orthogonalEdgeStyle;html=1;verticalAlign=bottom;endArrow=open;endSize=8;strokeColor=#ff0000;rounded=0;entryX=0;entryY=0.5;entryDx=0;entryDy=0;" edge="1" source="fWyK5Vm0Hm_J80TtpJjF-21" parent="1" target="fWyK5Vm0Hm_J80TtpJjF-25">
          <mxGeometry relative="1" as="geometry">
            <mxPoint x="470" y="-760" as="targetPoint" />
          </mxGeometry>
        </mxCell>
        <mxCell id="fWyK5Vm0Hm_J80TtpJjF-25" value="Choose a method" style="rhombus;whiteSpace=wrap;html=1;fontColor=#000000;fillColor=#ffffc0;strokeColor=#ff0000;" vertex="1" parent="1">
          <mxGeometry x="510" y="-705" width="100" height="70" as="geometry" />
        </mxCell>
        <mxCell id="fWyK5Vm0Hm_J80TtpJjF-26" value="camera" style="edgeStyle=orthogonalEdgeStyle;html=1;align=left;verticalAlign=bottom;endArrow=open;endSize=8;strokeColor=#ff0000;rounded=0;" edge="1" source="fWyK5Vm0Hm_J80TtpJjF-25" parent="1">
          <mxGeometry x="-1" relative="1" as="geometry">
            <mxPoint x="700" y="-670" as="targetPoint" />
          </mxGeometry>
        </mxCell>
        <mxCell id="fWyK5Vm0Hm_J80TtpJjF-27" value="upload from files" style="edgeStyle=orthogonalEdgeStyle;html=1;align=left;verticalAlign=top;endArrow=open;endSize=8;strokeColor=#ff0000;rounded=0;" edge="1" source="fWyK5Vm0Hm_J80TtpJjF-25" parent="1">
          <mxGeometry x="-1" relative="1" as="geometry">
            <mxPoint x="560" y="-590" as="targetPoint" />
          </mxGeometry>
        </mxCell>
        <mxCell id="fWyK5Vm0Hm_J80TtpJjF-28" value="Open the camera" style="rounded=1;whiteSpace=wrap;html=1;arcSize=40;fontColor=#000000;fillColor=#ffffc0;strokeColor=#ff0000;" vertex="1" parent="1">
          <mxGeometry x="700" y="-690" width="120" height="40" as="geometry" />
        </mxCell>
        <mxCell id="fWyK5Vm0Hm_J80TtpJjF-29" value="" style="edgeStyle=orthogonalEdgeStyle;html=1;verticalAlign=bottom;endArrow=open;endSize=8;strokeColor=#ff0000;rounded=0;" edge="1" source="fWyK5Vm0Hm_J80TtpJjF-28" parent="1">
          <mxGeometry relative="1" as="geometry">
            <mxPoint x="760" y="-590" as="targetPoint" />
          </mxGeometry>
        </mxCell>
        <mxCell id="fWyK5Vm0Hm_J80TtpJjF-30" value="Scan and hit ok" style="rounded=1;whiteSpace=wrap;html=1;arcSize=40;fontColor=#000000;fillColor=#ffffc0;strokeColor=#ff0000;" vertex="1" parent="1">
          <mxGeometry x="700" y="-590" width="120" height="40" as="geometry" />
        </mxCell>
        <mxCell id="fWyK5Vm0Hm_J80TtpJjF-31" value="" style="edgeStyle=orthogonalEdgeStyle;html=1;verticalAlign=bottom;endArrow=open;endSize=8;strokeColor=#ff0000;rounded=0;entryX=0.5;entryY=0;entryDx=0;entryDy=0;" edge="1" source="fWyK5Vm0Hm_J80TtpJjF-30" parent="1" target="fWyK5Vm0Hm_J80TtpJjF-34">
          <mxGeometry relative="1" as="geometry">
            <mxPoint x="760" y="-490" as="targetPoint" />
            <Array as="points">
              <mxPoint x="760" y="-510" />
              <mxPoint x="660" y="-510" />
            </Array>
          </mxGeometry>
        </mxCell>
        <mxCell id="fWyK5Vm0Hm_J80TtpJjF-32" value="Choose a file from the file system" style="rounded=1;whiteSpace=wrap;html=1;arcSize=40;fontColor=#000000;fillColor=#ffffc0;strokeColor=#ff0000;" vertex="1" parent="1">
          <mxGeometry x="500" y="-590" width="120" height="40" as="geometry" />
        </mxCell>
        <mxCell id="fWyK5Vm0Hm_J80TtpJjF-33" value="" style="edgeStyle=orthogonalEdgeStyle;html=1;verticalAlign=bottom;endArrow=open;endSize=8;strokeColor=#ff0000;rounded=0;" edge="1" source="fWyK5Vm0Hm_J80TtpJjF-32" parent="1" target="fWyK5Vm0Hm_J80TtpJjF-34">
          <mxGeometry relative="1" as="geometry">
            <mxPoint x="560" y="-490" as="targetPoint" />
          </mxGeometry>
        </mxCell>
        <mxCell id="fWyK5Vm0Hm_J80TtpJjF-34" value="Validate" style="rounded=1;whiteSpace=wrap;html=1;arcSize=40;fontColor=#000000;fillColor=#ffffc0;strokeColor=#ff0000;" vertex="1" parent="1">
          <mxGeometry x="600" y="-470" width="120" height="40" as="geometry" />
        </mxCell>
        <mxCell id="fWyK5Vm0Hm_J80TtpJjF-35" value="" style="edgeStyle=orthogonalEdgeStyle;html=1;verticalAlign=bottom;endArrow=open;endSize=8;strokeColor=#ff0000;rounded=0;" edge="1" source="fWyK5Vm0Hm_J80TtpJjF-34" parent="1">
          <mxGeometry relative="1" as="geometry">
            <mxPoint x="660" y="-370" as="targetPoint" />
          </mxGeometry>
        </mxCell>
        <mxCell id="fWyK5Vm0Hm_J80TtpJjF-36" value="file format check" style="rhombus;whiteSpace=wrap;html=1;fontColor=#000000;fillColor=#ffffc0;strokeColor=#ff0000;" vertex="1" parent="1">
          <mxGeometry x="610" y="-370" width="100" height="60" as="geometry" />
        </mxCell>
        <mxCell id="fWyK5Vm0Hm_J80TtpJjF-37" value="invalid file format" style="edgeStyle=orthogonalEdgeStyle;html=1;align=left;verticalAlign=bottom;endArrow=open;endSize=8;strokeColor=#ff0000;rounded=0;entryX=0.448;entryY=0.985;entryDx=0;entryDy=0;entryPerimeter=0;" edge="1" source="fWyK5Vm0Hm_J80TtpJjF-36" parent="1" target="fWyK5Vm0Hm_J80TtpJjF-21">
          <mxGeometry x="-0.6517" relative="1" as="geometry">
            <mxPoint x="800" y="-350" as="targetPoint" />
            <mxPoint as="offset" />
          </mxGeometry>
        </mxCell>
        <mxCell id="fWyK5Vm0Hm_J80TtpJjF-38" value="valid file format" style="edgeStyle=orthogonalEdgeStyle;html=1;align=left;verticalAlign=top;endArrow=open;endSize=8;strokeColor=#ff0000;rounded=0;entryX=1;entryY=0.75;entryDx=0;entryDy=0;" edge="1" source="fWyK5Vm0Hm_J80TtpJjF-36" parent="1" target="fWyK5Vm0Hm_J80TtpJjF-39">
          <mxGeometry x="-1" relative="1" as="geometry">
            <mxPoint x="660" y="-270" as="targetPoint" />
            <Array as="points">
              <mxPoint x="660" y="-240" />
            </Array>
          </mxGeometry>
        </mxCell>
        <mxCell id="fWyK5Vm0Hm_J80TtpJjF-39" value="Upload and send a confirmation" style="rounded=1;whiteSpace=wrap;html=1;arcSize=40;fontColor=#000000;fillColor=#ffffc0;strokeColor=#ff0000;" vertex="1" parent="1">
          <mxGeometry x="350" y="-270" width="120" height="40" as="geometry" />
        </mxCell>
        <mxCell id="fWyK5Vm0Hm_J80TtpJjF-40" value="" style="edgeStyle=orthogonalEdgeStyle;html=1;verticalAlign=bottom;endArrow=open;endSize=8;strokeColor=#ff0000;rounded=0;entryX=1;entryY=0.5;entryDx=0;entryDy=0;" edge="1" source="fWyK5Vm0Hm_J80TtpJjF-39" parent="1" target="fWyK5Vm0Hm_J80TtpJjF-16">
          <mxGeometry relative="1" as="geometry">
            <mxPoint x="410" y="-170" as="targetPoint" />
            <Array as="points">
              <mxPoint x="410" y="-140" />
              <mxPoint x="840" y="-140" />
              <mxPoint x="840" y="-770" />
            </Array>
          </mxGeometry>
        </mxCell>
        <mxCell id="fWyK5Vm0Hm_J80TtpJjF-41" value="Select or search the record" style="rounded=1;whiteSpace=wrap;html=1;arcSize=40;fontColor=#000000;fillColor=#ffffc0;strokeColor=#ff0000;" vertex="1" parent="1">
          <mxGeometry x="145" y="-540" width="120" height="40" as="geometry" />
        </mxCell>
        <mxCell id="fWyK5Vm0Hm_J80TtpJjF-42" value="" style="edgeStyle=orthogonalEdgeStyle;html=1;verticalAlign=bottom;endArrow=open;endSize=8;strokeColor=#ff0000;rounded=0;" edge="1" source="fWyK5Vm0Hm_J80TtpJjF-41" parent="1">
          <mxGeometry relative="1" as="geometry">
            <mxPoint x="205" y="-440" as="targetPoint" />
          </mxGeometry>
        </mxCell>
        <mxCell id="fWyK5Vm0Hm_J80TtpJjF-43" value="Prompt for updates" style="rounded=1;whiteSpace=wrap;html=1;arcSize=40;fontColor=#000000;fillColor=#ffffc0;strokeColor=#ff0000;" vertex="1" parent="1">
          <mxGeometry x="145" y="-440" width="120" height="40" as="geometry" />
        </mxCell>
        <mxCell id="fWyK5Vm0Hm_J80TtpJjF-44" value="" style="edgeStyle=orthogonalEdgeStyle;html=1;verticalAlign=bottom;endArrow=open;endSize=8;strokeColor=#ff0000;rounded=0;" edge="1" source="fWyK5Vm0Hm_J80TtpJjF-43" parent="1">
          <mxGeometry relative="1" as="geometry">
            <mxPoint x="205" y="-340" as="targetPoint" />
          </mxGeometry>
        </mxCell>
        <mxCell id="fWyK5Vm0Hm_J80TtpJjF-45" value="Enter the updated values and hit update" style="rounded=1;whiteSpace=wrap;html=1;arcSize=40;fontColor=#000000;fillColor=#ffffc0;strokeColor=#ff0000;" vertex="1" parent="1">
          <mxGeometry x="145" y="-340" width="120" height="40" as="geometry" />
        </mxCell>
        <mxCell id="fWyK5Vm0Hm_J80TtpJjF-46" value="" style="edgeStyle=orthogonalEdgeStyle;html=1;verticalAlign=bottom;endArrow=open;endSize=8;strokeColor=#ff0000;rounded=0;" edge="1" source="fWyK5Vm0Hm_J80TtpJjF-45" parent="1">
          <mxGeometry relative="1" as="geometry">
            <mxPoint x="205" y="-240" as="targetPoint" />
          </mxGeometry>
        </mxCell>
        <mxCell id="fWyK5Vm0Hm_J80TtpJjF-47" value="Confirm" style="rhombus;whiteSpace=wrap;html=1;fontColor=#000000;fillColor=#ffffc0;strokeColor=#ff0000;" vertex="1" parent="1">
          <mxGeometry x="165" y="-240" width="80" height="40" as="geometry" />
        </mxCell>
        <mxCell id="fWyK5Vm0Hm_J80TtpJjF-48" value="no" style="edgeStyle=orthogonalEdgeStyle;html=1;align=left;verticalAlign=bottom;endArrow=open;endSize=8;strokeColor=#ff0000;rounded=0;entryX=0;entryY=0.5;entryDx=0;entryDy=0;" edge="1" source="fWyK5Vm0Hm_J80TtpJjF-47" parent="1" target="fWyK5Vm0Hm_J80TtpJjF-16">
          <mxGeometry x="-0.9492" y="20" relative="1" as="geometry">
            <mxPoint x="345" y="-220" as="targetPoint" />
            <Array as="points">
              <mxPoint x="-70" y="-220" />
              <mxPoint x="-70" y="-770" />
            </Array>
            <mxPoint as="offset" />
          </mxGeometry>
        </mxCell>
        <mxCell id="fWyK5Vm0Hm_J80TtpJjF-49" value="yes" style="edgeStyle=orthogonalEdgeStyle;html=1;align=left;verticalAlign=top;endArrow=open;endSize=8;strokeColor=#ff0000;rounded=0;entryX=0;entryY=0.75;entryDx=0;entryDy=0;" edge="1" source="fWyK5Vm0Hm_J80TtpJjF-47" parent="1" target="fWyK5Vm0Hm_J80TtpJjF-39">
          <mxGeometry x="-1" relative="1" as="geometry">
            <mxPoint x="205" y="-140" as="targetPoint" />
          </mxGeometry>
        </mxCell>
        <mxCell id="fWyK5Vm0Hm_J80TtpJjF-54" value="delete the record" style="text;html=1;align=center;verticalAlign=middle;resizable=0;points=[];autosize=1;strokeColor=none;fillColor=none;" vertex="1" parent="1">
          <mxGeometry x="95" y="-702" width="110" height="30" as="geometry" />
        </mxCell>
        <mxCell id="fWyK5Vm0Hm_J80TtpJjF-55" value="Select the file" style="rounded=1;whiteSpace=wrap;html=1;arcSize=40;fontColor=#000000;fillColor=#ffffc0;strokeColor=#ff0000;" vertex="1" parent="1">
          <mxGeometry x="10" y="-570" width="120" height="40" as="geometry" />
        </mxCell>
        <mxCell id="fWyK5Vm0Hm_J80TtpJjF-56" value="" style="edgeStyle=orthogonalEdgeStyle;html=1;verticalAlign=bottom;endArrow=open;endSize=8;strokeColor=#ff0000;rounded=0;" edge="1" source="fWyK5Vm0Hm_J80TtpJjF-55" parent="1">
          <mxGeometry relative="1" as="geometry">
            <mxPoint x="70" y="-470" as="targetPoint" />
          </mxGeometry>
        </mxCell>
        <mxCell id="fWyK5Vm0Hm_J80TtpJjF-57" value="Confirm" style="rhombus;whiteSpace=wrap;html=1;fontColor=#000000;fillColor=#ffffc0;strokeColor=#ff0000;" vertex="1" parent="1">
          <mxGeometry x="25" y="-470" width="80" height="40" as="geometry" />
        </mxCell>
        <mxCell id="fWyK5Vm0Hm_J80TtpJjF-58" value="no" style="edgeStyle=orthogonalEdgeStyle;html=1;align=left;verticalAlign=bottom;endArrow=open;endSize=8;strokeColor=#ff0000;rounded=0;" edge="1" source="fWyK5Vm0Hm_J80TtpJjF-57" parent="1" target="fWyK5Vm0Hm_J80TtpJjF-16">
          <mxGeometry x="-1" relative="1" as="geometry">
            <mxPoint x="205" y="-450" as="targetPoint" />
            <Array as="points">
              <mxPoint x="-20" y="-450" />
              <mxPoint x="-20" y="-770" />
            </Array>
          </mxGeometry>
        </mxCell>
        <mxCell id="fWyK5Vm0Hm_J80TtpJjF-59" value="yes" style="edgeStyle=orthogonalEdgeStyle;html=1;align=left;verticalAlign=top;endArrow=open;endSize=8;strokeColor=#ff0000;rounded=0;" edge="1" source="fWyK5Vm0Hm_J80TtpJjF-57" parent="1">
          <mxGeometry x="-1" relative="1" as="geometry">
            <mxPoint x="65" y="-370" as="targetPoint" />
          </mxGeometry>
        </mxCell>
        <mxCell id="fWyK5Vm0Hm_J80TtpJjF-60" value="Deleting the file" style="rounded=1;whiteSpace=wrap;html=1;arcSize=40;fontColor=#000000;fillColor=#ffffc0;strokeColor=#ff0000;" vertex="1" parent="1">
          <mxGeometry x="5" y="-370" width="120" height="40" as="geometry" />
        </mxCell>
        <mxCell id="fWyK5Vm0Hm_J80TtpJjF-61" value="" style="edgeStyle=orthogonalEdgeStyle;html=1;verticalAlign=bottom;endArrow=open;endSize=8;strokeColor=#ff0000;rounded=0;" edge="1" source="fWyK5Vm0Hm_J80TtpJjF-60" parent="1">
          <mxGeometry relative="1" as="geometry">
            <mxPoint x="-70" y="-610" as="targetPoint" />
          </mxGeometry>
        </mxCell>
      </root>
    </mxGraphModel>
  </diagram>
</mxfile>
